<?xml version="1.0" encoding="utf-8"?>
<!-- Generator: Adobe Illustrator 24.1.2, SVG Export Plug-In . SVG Version: 6.00 Build 0)  -->
<svg version="1.1" id="圖層_1" xmlns="http://www.w3.org/2000/svg" xmlns:xlink="http://www.w3.org/1999/xlink" x="0px" y="0px"
	 viewBox="0 0 300 55" style="enable-background:new 0 0 300 55;" xml:space="preserve">
<style type="text/css">
	.st0{clip-path:url(#SVGID_2_);}
	.st1{fill:#C3D851;}
	.st2{fill:#FFFFFF;}
	.st3{clip-path:url(#SVGID_2_);fill:#FFFFFF;}
	.st4{clip-path:url(#SVGID_5_);}
	.st5{clip-path:url(#SVGID_6_);fill:#FFFFFF;}
	.st6{fill:#595757;}
</style>
<g>
	<g>
		<defs>
			<path id="SVGID_1_" d="M53.4,27.5c0,3.9-0.9,7.6-2.4,10.9c-4.1,8.9-13.1,15.1-23.6,15.1c-14.3,0-26-11.6-26-26
				c0-14.3,11.6-26,26-26C41.7,1.5,53.4,13.2,53.4,27.5z"/>
		</defs>
		<use xlink:href="#SVGID_1_"  style="overflow:visible;fill:#EE7E40;"/>
		<clipPath id="SVGID_2_">
			<use xlink:href="#SVGID_1_"  style="overflow:visible;"/>
		</clipPath>
		<g class="st0">
			<path class="st1" d="M53.8,41.1H15.9c-0.6,0-1.1-0.5-1.1-1.1V3.8l-7.2,6V45c0,0.6,0.5,1.1,1.1,1.1h43.1"/>
			<path class="st2" d="M51.8,46.5H8.7c-0.8,0-1.5-0.7-1.5-1.5V9.5l8-6.7V40c0,0.4,0.3,0.7,0.7,0.7h37.9v0.9H15.9
				c-0.8,0-1.5-0.7-1.5-1.5V4.7L8,9.9V45c0,0.4,0.3,0.7,0.7,0.7h43.1V46.5z"/>
		</g>
		<rect x="7" y="42.8" transform="matrix(0.8219 -0.5697 0.5697 0.8219 -22.5776 14.324)" class="st3" width="9.3" height="0.9"/>
	</g>
	<path class="st2" d="M27.4,53.9C12.8,53.9,1,42.1,1,27.5C1,12.9,12.8,1.1,27.4,1.1c14.6,0,26.4,11.8,26.4,26.4
		c0,3.9-0.8,7.6-2.4,11.1C47.1,47.9,37.7,53.9,27.4,53.9z M27.4,2C13.3,2,1.9,13.4,1.9,27.5C1.9,41.6,13.3,53,27.4,53
		c9.9,0,19-5.8,23.2-14.8c1.6-3.4,2.3-7,2.3-10.7C52.9,13.4,41.5,2,27.4,2z"/>
	<g>
		<g>
			<defs>
				<path id="SVGID_3_" d="M35.1,13c0,0-10.9-9-20.4-7.7v26.4c0,0,16.4,4.1,20.4,9.5c4-5.4,20.4-9.5,20.4-9.5V5.3
					C46,4,35.1,13,35.1,13z"/>
			</defs>
			<defs>
				<path id="SVGID_4_" d="M35.1,41.6c-0.1,0-0.3-0.1-0.3-0.2c-3.8-5.2-20-9.3-20.2-9.3c-0.2,0-0.3-0.2-0.3-0.4V5.3
					c0-0.2,0.2-0.4,0.4-0.4c0.6-0.1,1.3-0.1,2-0.1c8.3,0,16.8,6.4,18.5,7.7c1.6-1.3,10.1-7.7,18.5-7.7c0.7,0,1.3,0,2,0.1
					c0.2,0,0.4,0.2,0.4,0.4v26.4c0,0.2-0.1,0.4-0.3,0.4c-0.2,0-16.3,4.1-20.2,9.3C35.4,41.5,35.2,41.6,35.1,41.6z M15.1,31.4
					c2.3,0.6,15.8,4.3,20,9.1c4.2-4.9,17.7-8.5,20-9.1V5.7c-0.5-0.1-1-0.1-1.5-0.1c-8.8,0-18.1,7.6-18.2,7.7c-0.2,0.1-0.4,0.1-0.5,0
					c-0.1-0.1-9.5-7.7-18.2-7.7c-0.5,0-1,0-1.5,0.1V31.4z"/>
			</defs>
			<use xlink:href="#SVGID_3_"  style="overflow:visible;fill:#21A847;"/>
			<use xlink:href="#SVGID_4_"  style="overflow:visible;fill:#FFFFFF;"/>
			<clipPath id="SVGID_5_">
				<use xlink:href="#SVGID_3_"  style="overflow:visible;"/>
			</clipPath>
			<clipPath id="SVGID_6_" class="st4">
				<use xlink:href="#SVGID_4_"  style="overflow:visible;"/>
			</clipPath>
			<path class="st5" d="M35.1,41.9c-0.2,0-0.4-0.2-0.4-0.4v-31c0-0.2,0.2-0.4,0.4-0.4c0.2,0,0.4,0.2,0.4,0.4v31
				C35.5,41.7,35.3,41.9,35.1,41.9z"/>
		</g>
		<rect x="34.8" y="13" class="st2" width="0.8" height="27.8"/>
	</g>
</g>
<g>
	<path class="st6" d="M75.1,21.9L75.1,21.9c3.1,0.7,4,2,4,2.9c0,0.6-0.4,1.1-0.9,1.1c-0.2,0-0.5-0.1-0.8-0.3
		c-0.2-1.1-1.3-2.5-2.3-3.3v6.9c0,0-0.3,0.6-1.9,0.6v-6.3c-1.2,1.8-2.8,3.3-4.7,4.5l-0.3-0.4c1.9-1.9,3.5-4.5,4.4-7.1h-3.8L68.5,20
		h4.6v-3.2h-4.8l-0.1-0.5H75c0.4-1.4,0.9-3.3,1.2-4.8l2.8,0.7c-0.1,0.3-0.3,0.4-0.9,0.4c-0.6,1.1-1.6,2.5-2.5,3.7h1.7l1.1-1.4
		l2.2,1.5c-0.2,0.3-0.5,0.5-1.2,0.5h-3.6c-0.1,0.1-0.3,0.2-0.7,0.3V20h2l1.1-1.4l2,1.5c-0.2,0.3-0.5,0.5-1.1,0.5h-4V21.9z
		 M68.8,11.3l-0.1-0.5h4.5V7.5l3,0.2c0,0.4-0.3,0.5-1,0.6v2.4h1.7l1.1-1.4l2.1,1.5c-0.2,0.3-0.5,0.5-1.2,0.5H68.8z M70.6,11.6
		c1.8,1.1,2.4,2.3,2.4,3.2c0,0.8-0.5,1.4-1.1,1.4c-0.3,0-0.6-0.1-0.8-0.5c0-0.2,0-0.4,0-0.5c0-1.1-0.3-2.5-0.8-3.4L70.6,11.6z
		 M89.1,14.4l2.4,1.7c-0.2,0.3-0.5,0.5-1.2,0.5h-2v12.6c0,0.1-0.6,0.6-1.6,0.6h-0.3V16.6h-3.2v0.8c0,4.3-0.6,9.2-5.8,12.3L77,29.4
		c3.6-3.3,4.2-7.5,4.2-12.1V9.4l2.2,0.7c2-0.8,4.1-1.8,5.3-2.6L91,9.3c-0.1,0.1-0.3,0.2-0.6,0.2c-0.2,0-0.4,0-0.7-0.1
		c-1.6,0.5-4.2,1.1-6.5,1.4v5.3h4.7L89.1,14.4z"/>
	<path class="st6" d="M108.5,13.2c-0.2,0.3-0.5,0.5-1.2,0.5H104v15.4c0,0.1-0.7,0.6-1.7,0.6h-0.3v-16h-1.3c-1,2-2.2,3.8-3.5,5.1
		l-0.4-0.2c1.6-2.4,3.1-6.8,3.8-11l3,0.7c-0.1,0.3-0.3,0.5-0.9,0.5c-0.5,1.6-1,3.1-1.6,4.4h4.1l1.2-1.6L108.5,13.2z M117.5,11.6
		l2.3,1.7c-0.2,0.3-0.5,0.5-1.2,0.5h-3.2V27c0,1.5-0.4,2.5-3,2.7c0-1.6-0.9-1.9-2.8-2v-0.3h3.3c0.3,0,0.5-0.1,0.5-0.4V13.7h-3
		c-1.1,2.1-2.5,3.8-4,5.1l-0.3-0.2c1.8-2.4,3.5-6.7,4.3-11.1l3.1,0.8c-0.1,0.3-0.3,0.5-0.9,0.5c-0.5,1.6-1.1,3-1.8,4.4h5.6
		L117.5,11.6z"/>
	<path class="st6" d="M130.4,23.5c-0.1,0.3-0.3,0.4-0.9,0.4c-1,2-2.3,3.8-3.7,4.8l-0.4-0.2c0.9-1.3,1.8-3.6,2.4-5.8L130.4,23.5z
		 M137.6,20.8c-0.2,0.3-0.5,0.5-1.1,0.5h-3.7v8c0,0.1-0.6,0.5-1.5,0.5h-0.3v-8.5h-2.8V22c0,0-0.2,0.6-1.7,0.6V10.3l2.6,0.2
		c0,0.3-0.2,0.5-0.9,0.5v9.8h6.4l1.1-1.4L137.6,20.8z M131.2,18.1v0.9c0,0.1-0.5,0.6-1.4,0.6h-0.3V8.2l2,0.8h2.6l0.8-1l2.2,1.5
		c-0.1,0.2-0.5,0.4-1,0.5v8.5c0,0.1-0.5,0.6-1.7,0.6v-1.1H131.2z M134.3,9.5h-3.1v2.3h3.1V9.5z M131.2,14.7h3.1v-2.3h-3.1V14.7z
		 M131.2,17.5h3.1v-2.3h-3.1V17.5z M134,22.8c2.3,0.9,3.1,2.1,3.1,3c0,0.7-0.5,1.2-1,1.2c-0.3,0-0.6-0.1-0.8-0.4
		c0-1.1-0.7-2.7-1.4-3.6L134,22.8z M141.5,23.3c-0.1,0.3-0.3,0.4-0.9,0.4c-0.9,1.9-2.2,3.7-3.5,4.8l-0.4-0.2
		c0.8-1.3,1.7-3.6,2.2-5.8L141.5,23.3z M146.9,13.9c-0.1,0.2-0.2,0.2-0.5,0.2c-0.1,0-0.3,0-0.5-0.1c-1.4,1.7-3.5,4-5.5,5.7
		c1.6,0,3.5-0.1,5.4-0.2c-0.4-0.7-0.8-1.4-1.3-1.8l0.2-0.2c2.7,1,3.5,2.4,3.5,3.4c0,0.7-0.5,1.2-1,1.2c-0.3,0-0.5-0.1-0.8-0.4
		c0-0.5-0.2-1.1-0.4-1.7c-0.7,0.2-1.5,0.3-2.4,0.5v8.7c0,0.1-0.6,0.5-1.6,0.5h-0.3V21c-0.9,0.2-1.9,0.4-3,0.5
		c-0.1,0.3-0.4,0.5-0.7,0.5l-0.8-2.1c0.6,0,1.4,0,2.4,0c1.6-2.1,3.6-5,4.7-7.2L146.9,13.9z M147.5,9.4c-0.1,0.1-0.3,0.2-0.5,0.2
		c-0.2,0-0.5-0.1-0.8-0.2c-1,0.3-2.4,0.5-3.8,0.7l1.5,0.6c-0.1,0.3-0.3,0.4-0.9,0.4c-0.8,1.1-1.8,2.3-2.8,3.2
		c0.8,0.5,1.2,1.2,1.2,1.7c0,0.6-0.4,1-0.9,1c-0.2,0-0.5-0.1-0.7-0.3c-0.3-1.1-1.4-2.5-2.5-3.2l0.2-0.2c0.9,0.2,1.6,0.4,2.2,0.7
		c0.5-1.1,1-2.4,1.5-3.7c-1.2,0.1-2.4,0.2-3.6,0.3l-0.1-0.4c2.8-0.5,6.2-1.6,8-2.6L147.5,9.4z M144.9,22.5c2.4,1.3,3.1,2.8,3.1,3.9
		c0,0.9-0.5,1.4-1,1.4c-0.3,0-0.5-0.1-0.8-0.4c0.1-1.5-0.7-3.5-1.6-4.7L144.9,22.5z"/>
	<path class="st6" d="M153.9,19.3c2.6-2.2,5.3-6.4,6.7-11.1l3,1.1c-0.1,0.3-0.3,0.4-1,0.4c-2,4.5-5,7.9-8.5,9.9L153.9,19.3z
		 M165.9,16.7c-0.1,0.3-0.3,0.4-1,0.4c-1,2.7-2.6,6.4-4.5,9.4c2.9-0.1,6.5-0.2,10.4-0.4c-1-1.6-2.3-3.1-3.5-4.2l0.3-0.2
		c5.1,2.4,6.7,5.1,6.7,6.7c0,0.8-0.4,1.3-1,1.3c-0.3,0-0.6-0.1-0.9-0.4c-0.2-0.8-0.7-1.7-1.2-2.7c-3.1,0.5-7.4,1.1-13.5,1.9
		c-0.1,0.3-0.4,0.5-0.7,0.5l-1.5-2.6c1,0,2.4,0,4.1-0.1c1.3-3.3,2.5-7.4,3.1-10.6L165.9,16.7z M176.8,17.6c-0.8,0.1-1.5,0.7-1.8,1.7
		c-3.2-2.3-5.7-6.3-7.1-11.4l0.4-0.2c1.7,4.2,5.2,7.9,8.7,9.6L176.8,17.6z"/>
	<path class="st6" d="M202.8,19.3l2.5,1.7c-0.2,0.3-0.5,0.5-1.2,0.5h-21.6l-0.1-0.5h6v-7.3h-5l-0.1-0.5h5.1V7.7l3.1,0.3
		c0,0.4-0.3,0.5-1.1,0.6v4.6h6.9V7.7l3.1,0.3c0,0.4-0.3,0.5-1.1,0.6v4.6h1.7l1.2-1.6l2.3,1.7c-0.2,0.3-0.5,0.5-1.2,0.5h-4.1V21h2.2
		L202.8,19.3z M192.2,24c-0.1,0.2-0.2,0.3-0.5,0.3c-0.1,0-0.2,0-0.4-0.1c-1.7,2-4.8,4.2-8.2,5.5l-0.2-0.3c2.8-1.8,5.5-4.6,6.8-6.8
		L192.2,24z M190.4,13.7V21h6.9v-7.3H190.4z M196.6,23.1c6.1,1.7,7.9,4.2,7.9,5.6c0,0.6-0.4,1.1-0.9,1.1c-0.2,0-0.5-0.1-0.7-0.2
		c-1.1-2.1-4.1-4.7-6.5-6.2L196.6,23.1z"/>
	<path class="st6" d="M232.3,8l2.3,1.7c-0.2,0.2-0.6,0.4-1.1,0.5v18.6c0,0-0.5,0.7-1.9,0.7v-1.3h-16.4V29c0,0-0.1,0.8-1.9,0.8V8.2
		l2.1,0.9h15.9L232.3,8z M215.2,27.6h16.4V9.7h-16.4V27.6z M229,15.1l2,1.3c-0.2,0.3-0.5,0.5-1.1,0.5h-13.7l-0.2-0.5h6.5v-1.7h-2.4
		v0.3c0,0-0.3,0.6-1.7,0.6v-4.7l1.9,0.8h6.3l0.7-0.9l2.1,1.4c-0.1,0.1-0.4,0.3-0.8,0.4v2.4c0,0.1-0.5,0.5-1.8,0.5v-0.7h-2.5v1.7h3.8
		L229,15.1z M227.4,18.3l0.7-0.9l2,1.4c-0.1,0.2-0.4,0.3-0.8,0.4V26c0,0-0.5,0.5-1.7,0.5v-1.1h-8.5v0.6c0,0-0.2,0.6-1.7,0.6v-9.1
		l1.8,0.8H227.4z M219.1,25h8.5v-6.1h-8.5V25z M220.1,14h6.6v-2h-6.6V14z M225.1,19.6l1.7,1.1c-0.1,0.1-0.4,0.3-0.7,0.3v2.6
		c0,0.1-0.4,0.5-1.4,0.5v-0.8h-2.7v0.5c0,0.1-0.5,0.4-1.2,0.4h-0.2v-4.7l1.5,0.7h2.4L225.1,19.6z M222.1,22.8h2.7v-2h-2.7V22.8z"/>
	<path class="st6" d="M259.5,15.8c0,0.2-1,0.6-1.6,0.6h-0.3v-0.8h-4.7v2h5.5l1.2-1.4l2.2,1.5c-0.2,0.3-0.5,0.5-1.2,0.5h-7.7v2.1h6.9
		l1.2-1.5l2.3,1.5c-0.2,0.3-0.5,0.5-1.2,0.5h-21.3l-0.1-0.5h10.3V18h-8.3l-0.1-0.5h8.5v-2h-7.3l-0.2-0.5h7.4v-2.1h-10.3l-0.1-0.5
		h10.4v-2.1h-7.1l-0.2-0.5h7.3V7.5l3.1,0.3c0,0.4-0.3,0.5-1.1,0.6v1.3h4.5l0.8-1.1l2.3,1.6c-0.1,0.2-0.5,0.4-1,0.5v1.6h0.8l1.1-1.4
		l2.1,1.5c-0.2,0.3-0.5,0.5-1.2,0.5h-2.8V15.8z M257.4,22.5l0.9-1.1l2.4,1.6c-0.2,0.2-0.5,0.4-1,0.5v5.5c0,0-0.6,0.5-2,0.5v-1.2
		h-11.4v0.7c0,0-0.3,0.7-2,0.7v-8.1l2.1,0.9H257.4z M257.6,23h-11.4v2.1h11.4V23z M246.2,27.8h11.4v-2.2h-11.4V27.8z M252.9,10.2
		v2.1h4.7v-2.1H252.9z M252.9,14.9h4.7v-2.1h-4.7V14.9z"/>
	<path class="st6" d="M278.1,22c0,0.1-0.8,0.4-1.5,0.4h-0.3v-1.1h-3.8V26c1-0.2,2.1-0.4,3.3-0.7c-0.5-0.8-1-1.6-1.6-2.2l0.2-0.2
		c3.1,1.3,4.2,2.9,4.2,4c0,0.8-0.5,1.3-1,1.3c-0.3,0-0.6-0.1-0.9-0.4c-0.1-0.6-0.3-1.3-0.6-2c-1.3,0.7-3,1.6-5.3,2.6
		c-0.1,0.3-0.3,0.5-0.6,0.6l-1.1-2.5c0.4,0,0.9-0.1,1.6-0.3V14.6c-0.4,0.5-0.9,0.9-1.4,1.2l-0.3-0.2c1.7-2.1,3.2-5.6,3.8-8.1
		l3.1,0.3c0,0.3-0.3,0.4-0.9,0.5v0c3.3,0.9,4.4,2.3,4.4,3.3c0,0.7-0.5,1.1-1.1,1.1c-0.3,0-0.5-0.1-0.8-0.3c-0.3-1.1-1.2-2.7-2.7-3.8
		c-0.8,1.7-2,3.6-3.5,5.3l1.3,0.6h0.9v-2.7L276,12c0,0.3-0.2,0.4-0.8,0.5v2h1.2l0.7-1L279,15c-0.2,0.2-0.5,0.3-0.9,0.4V22z
		 M276.3,15h-3.8v2.6h3.8V15z M272.4,20.7h3.8v-2.6h-3.8V20.7z M288.3,22.2l0.8-1l2.2,1.5c-0.1,0.2-0.5,0.4-0.9,0.4v5.6
		c0,0-0.5,0.6-1.9,0.6v-1.6h-6.1V29c0,0-0.2,0.7-1.8,0.7V13.8c-0.1,0.1-0.6,0.4-1.1,0.4c-0.5,0-0.9-0.3-0.9-0.7
		c0-0.4,0.3-0.8,0.8-1.1c0.6-0.4,1.3-1.4,1.3-2.4h0.4c0.1,0.4,0.2,0.7,0.2,1h2.9V7.5l3,0.3c0,0.3-0.3,0.5-1,0.6V11h2.8l1.1-1.1
		l2,1.9c-0.2,0.2-0.5,0.2-0.9,0.2c-0.5,0.5-1.5,1.4-2.1,1.9l1.6,1.1c-0.1,0.2-0.5,0.4-1,0.4v4.6c0,0-0.5,0.5-1.9,0.5v-1.2h-5.4v2.7
		H288.3z M281.4,11.5c0,1-0.2,1.7-0.7,2.2l1.9,0.8h5l0.8-1l0.3,0.2c0.1-0.6,0.3-1.5,0.5-2.2H281.4z M282.5,18.9h5.4v-3.8h-5.4V18.9z
		 M282.5,27.2h6.1v-4.5h-6.1V27.2z"/>
</g>
<g>
	<g>
		<path class="st6" d="M68.1,36.7h3.7v0.6h-0.3c-0.3,0-0.5,0-0.6,0.1c-0.1,0.1-0.2,0.2-0.3,0.3c0,0.1-0.1,0.3-0.1,0.7V41h5v-2.6
			c0-0.4,0-0.6,0-0.6c0-0.1-0.1-0.3-0.2-0.3c-0.1-0.1-0.3-0.1-0.6-0.1h-0.4v-0.6h3.7v0.6h-0.3c-0.3,0-0.4,0-0.6,0.1
			c-0.1,0.1-0.2,0.1-0.2,0.2c0,0.1-0.1,0.3-0.1,0.6v6.6c0,0.4,0,0.6,0.1,0.7c0,0.1,0.1,0.2,0.3,0.2c0.1,0,0.4,0,0.8,0v0.6h-3.7v-0.6
			h0.3c0.3,0,0.6,0,0.7-0.1c0.1,0,0.2-0.1,0.2-0.2c0-0.1,0-0.3,0-0.7v-3h-5v3.1c0,0.4,0,0.6,0.1,0.7c0,0.1,0.1,0.2,0.3,0.2
			c0.1,0,0.4,0,0.9,0v0.6h-3.7v-0.6h0.2c0.4,0,0.6,0,0.7-0.1c0.1,0,0.2-0.1,0.2-0.2c0.1-0.1,0.1-0.3,0.1-0.6v-6.7
			c0-0.3,0-0.5-0.1-0.6c0-0.1-0.1-0.2-0.2-0.3c-0.1-0.1-0.3-0.1-0.5-0.1h-0.4V36.7z"/>
		<path class="st6" d="M84.3,39.6h0.5l0.6,2.1L84.8,42c-0.3-0.6-0.6-1-1.1-1.3c-0.5-0.3-0.9-0.5-1.4-0.5c-0.4,0-0.6,0.1-0.9,0.3
			c-0.2,0.2-0.3,0.4-0.3,0.6c0,0.2,0.1,0.4,0.2,0.5c0.2,0.2,0.5,0.3,1.1,0.5l1.4,0.5c0.8,0.3,1.3,0.6,1.6,0.9
			c0.3,0.3,0.4,0.7,0.4,1.1c0,0.3-0.1,0.7-0.3,1c-0.2,0.3-0.5,0.6-0.9,0.7c-0.4,0.2-0.8,0.3-1.3,0.3c-0.8,0-1.4-0.2-2-0.7l-0.1,0.5
			h-0.5l-0.9-2.3l0.6-0.3c0.4,0.7,0.8,1.1,1.2,1.4c0.5,0.4,1.1,0.6,1.7,0.6c0.4,0,0.7-0.1,1-0.3c0.3-0.2,0.4-0.5,0.4-0.7
			c0-0.2-0.1-0.4-0.2-0.6c-0.2-0.2-0.5-0.3-1-0.5l-1.6-0.6c-0.7-0.3-1.2-0.5-1.4-0.8c-0.3-0.3-0.4-0.6-0.4-1c0-0.5,0.2-0.9,0.7-1.2
			c0.4-0.4,1-0.5,1.7-0.5c0.4,0,0.7,0,0.9,0.1c0.3,0.1,0.6,0.2,0.8,0.4L84.3,39.6z"/>
		<path class="st6" d="M87.3,40.6v-0.6c0.4,0,0.7-0.1,1-0.2c0.3-0.1,0.6-0.2,0.9-0.4h0.5V45c0,0.2,0,0.3,0.1,0.4
			c0.1,0.1,0.1,0.2,0.2,0.2c0.1,0,0.3,0.1,0.5,0.1h0.3v0.6h-3.6v-0.6h0.3c0.3,0,0.5,0,0.6-0.1c0.1-0.1,0.2-0.1,0.2-0.2
			c0-0.1,0.1-0.3,0.1-0.7v-4.1H87.3z M89,36.3c0.2,0,0.4,0.1,0.6,0.2c0.2,0.2,0.2,0.3,0.2,0.6c0,0.2-0.1,0.4-0.2,0.6
			c-0.2,0.2-0.3,0.2-0.6,0.2c-0.2,0-0.4-0.1-0.6-0.2c-0.2-0.2-0.2-0.3-0.2-0.6c0-0.2,0.1-0.4,0.2-0.6S88.8,36.3,89,36.3z"/>
		<path class="st6" d="M91.9,40.6v-0.6c0.4,0,0.7-0.1,0.9-0.2c0.2-0.1,0.5-0.2,0.9-0.4h0.5v1.3c0.6-0.5,1.1-0.9,1.6-1
			c0.4-0.2,0.9-0.3,1.3-0.3c0.4,0,0.7,0.1,1,0.2c0.3,0.1,0.5,0.3,0.7,0.5c0.2,0.2,0.3,0.5,0.4,0.7c0,0.2,0.1,0.4,0.1,0.8v3.1
			c0,0.4,0,0.6,0.1,0.7c0.1,0.1,0.1,0.2,0.3,0.2c0.1,0,0.4,0.1,0.9,0.1v0.6h-3.6v-0.6H97c0.3,0,0.6,0,0.7-0.1
			c0.1-0.1,0.2-0.1,0.3-0.3c0.1-0.1,0.1-0.4,0.1-0.7v-2.6c0-0.5,0-0.9-0.1-1.1s-0.2-0.4-0.4-0.5c-0.2-0.1-0.5-0.2-0.8-0.2
			c-0.4,0-0.8,0.1-1.2,0.3c-0.4,0.2-0.8,0.5-1.2,0.9v3.2c0,0.4,0,0.6,0.1,0.7c0.1,0.1,0.1,0.2,0.3,0.3c0.1,0,0.3,0.1,0.7,0.1h0.2
			v0.6h-3.6v-0.6H92c0.3,0,0.6,0,0.7-0.1c0.1-0.1,0.2-0.2,0.3-0.3c0-0.1,0-0.3,0-0.8v-4H91.9z"/>
		<path class="st6" d="M107.7,44.4l0.4,0.4c-0.9,1.2-1.9,1.7-3.1,1.7c-0.9,0-1.8-0.3-2.4-1c-0.7-0.7-1-1.5-1-2.5
			c0-0.7,0.2-1.3,0.5-1.8c0.3-0.5,0.7-1,1.3-1.2c0.5-0.3,1.2-0.4,1.9-0.4c0.8,0,1.5,0.2,2,0.6c0.5,0.4,0.8,0.8,0.8,1.2
			c0,0.2-0.1,0.4-0.2,0.5c-0.1,0.1-0.3,0.2-0.4,0.2c-0.1,0-0.2,0-0.2-0.1c-0.1,0-0.2-0.1-0.2-0.2c0,0-0.1-0.2-0.2-0.4
			c-0.1-0.3-0.2-0.4-0.3-0.5c-0.1-0.2-0.3-0.3-0.5-0.4c-0.2-0.1-0.4-0.2-0.7-0.2c-0.4,0-0.8,0.1-1.1,0.3c-0.3,0.2-0.6,0.5-0.8,1
			c-0.2,0.4-0.3,0.9-0.3,1.5c0,0.9,0.2,1.6,0.7,2.2c0.4,0.5,0.9,0.7,1.5,0.7c0.3,0,0.5,0,0.8-0.1c0.3-0.1,0.5-0.2,0.8-0.4
			C107,45.1,107.3,44.9,107.7,44.4z"/>
		<path class="st6" d="M109.2,37.3v-0.6c0.4-0.1,0.8-0.1,1-0.2c0.3-0.1,0.5-0.2,0.8-0.4h0.5v4.6c0.5-0.4,1-0.8,1.5-1
			c0.5-0.2,0.9-0.3,1.3-0.3c0.6,0,1.1,0.2,1.5,0.6c0.4,0.4,0.6,0.8,0.6,1.4v3.4c0,0.3,0,0.6,0.1,0.7c0.1,0.1,0.1,0.2,0.3,0.2
			c0.1,0,0.4,0.1,0.8,0.1v0.6h-3.6v-0.6h0.3c0.3,0,0.6,0,0.7-0.1c0.1-0.1,0.2-0.1,0.2-0.3c0-0.1,0.1-0.4,0.1-0.8v-2.4
			c0-0.5,0-0.9-0.1-1c-0.1-0.3-0.2-0.5-0.4-0.6c-0.2-0.2-0.5-0.2-0.8-0.2c-0.4,0-0.8,0.1-1.2,0.3c-0.4,0.2-0.8,0.5-1.3,0.8V45
			c0,0.3,0,0.4,0.1,0.5c0,0.1,0.1,0.2,0.2,0.2c0.1,0,0.3,0.1,0.6,0.1h0.3v0.6h-3.6v-0.6h0.2c0.3,0,0.6,0,0.7-0.1
			c0.1,0,0.1-0.1,0.2-0.2c0-0.1,0.1-0.5,0.1-1v-7.1H109.2z"/>
		<path class="st6" d="M118.5,39.6l2.6-0.1V44c0,0.4,0.1,0.7,0.2,0.9c0.1,0.2,0.3,0.4,0.5,0.5c0.2,0.1,0.5,0.2,0.8,0.2
			c0.4,0,0.8-0.1,1.3-0.3c0.5-0.2,0.9-0.5,1.4-0.9v-3.2c0-0.3,0-0.6-0.1-0.7c-0.1-0.1-0.1-0.2-0.3-0.3c-0.1-0.1-0.3-0.1-0.6-0.1
			h-0.5v-0.6l2.6-0.1v5.2c0,0.3,0,0.6,0.1,0.7c0.1,0.1,0.1,0.2,0.2,0.3c0.1,0.1,0.3,0.1,0.7,0.1h0.2v0.6l-2.3,0.1v-1.3
			c-0.6,0.5-1.2,0.9-1.7,1c-0.5,0.2-1,0.3-1.4,0.3c-0.4,0-0.7,0-0.9-0.1c-0.3-0.1-0.5-0.2-0.7-0.4c-0.2-0.2-0.4-0.4-0.5-0.7
			c-0.1-0.3-0.2-0.6-0.2-0.9v-3.2c0-0.3,0-0.5-0.1-0.6c-0.1-0.1-0.1-0.2-0.3-0.3c-0.1-0.1-0.3-0.1-0.5-0.1h-0.6V39.6z"/>
		<path class="st6" d="M141.6,36.7h0.5l0.9,3.2l-0.6,0.2c-0.3-0.7-0.6-1.2-0.8-1.5c-0.3-0.4-0.7-0.7-1.1-1c-0.4-0.2-0.9-0.4-1.5-0.4
			c-0.6,0-1.2,0.2-1.7,0.5c-0.5,0.3-1,0.8-1.3,1.5c-0.3,0.6-0.5,1.4-0.5,2.2c0,0.8,0.2,1.6,0.5,2.2c0.3,0.7,0.8,1.2,1.3,1.5
			c0.6,0.4,1.2,0.5,1.8,0.5c0.6,0,1.2-0.2,1.9-0.5c0.6-0.4,1.2-0.8,1.7-1.5l0.6,0.4c-0.3,0.4-0.6,0.8-0.9,1.1
			c-0.5,0.5-1.1,0.8-1.6,1.1s-1.2,0.3-1.9,0.3c-1.5,0-2.7-0.6-3.7-1.7c-0.8-0.9-1.2-2-1.2-3.3c0-0.9,0.2-1.8,0.6-2.6
			c0.4-0.8,1-1.4,1.8-1.8c0.8-0.4,1.6-0.7,2.4-0.7c0.5,0,0.9,0.1,1.3,0.2c0.4,0.1,0.8,0.3,1.2,0.6L141.6,36.7z"/>
		<path class="st6" d="M148,39.5c0.7,0,1.3,0.1,1.8,0.4c0.5,0.3,0.9,0.7,1.2,1.2c0.3,0.5,0.4,1.2,0.4,1.9c0,0.7-0.1,1.3-0.4,1.9
			c-0.3,0.5-0.7,1-1.2,1.2c-0.5,0.3-1.1,0.4-1.8,0.4c-1.1,0-2-0.3-2.5-1c-0.6-0.7-0.8-1.5-0.8-2.5c0-0.7,0.1-1.3,0.4-1.8
			c0.3-0.5,0.7-0.9,1.2-1.2C146.7,39.6,147.3,39.5,148,39.5z M147.9,40.2c-0.5,0-1,0.2-1.3,0.6c-0.5,0.5-0.7,1.3-0.7,2.3
			c0,1,0.2,1.7,0.6,2.2c0.4,0.4,0.8,0.7,1.5,0.7c0.4,0,0.7-0.1,1.1-0.3c0.3-0.2,0.6-0.5,0.7-1c0.2-0.5,0.3-1,0.3-1.6
			c0-0.6-0.1-1.1-0.3-1.6c-0.2-0.4-0.4-0.7-0.7-0.9C148.7,40.3,148.3,40.2,147.9,40.2z"/>
		<path class="st6" d="M152.4,39.6l2.6-0.1V44c0,0.4,0.1,0.7,0.2,0.9c0.1,0.2,0.3,0.4,0.5,0.5c0.2,0.1,0.5,0.2,0.8,0.2
			c0.4,0,0.8-0.1,1.3-0.3c0.5-0.2,0.9-0.5,1.4-0.9v-3.2c0-0.3,0-0.6-0.1-0.7c-0.1-0.1-0.1-0.2-0.3-0.3c-0.1-0.1-0.3-0.1-0.6-0.1
			h-0.5v-0.6l2.6-0.1v5.2c0,0.3,0,0.6,0.1,0.7c0.1,0.1,0.1,0.2,0.2,0.3c0.1,0.1,0.3,0.1,0.7,0.1h0.2v0.6l-2.3,0.1v-1.3
			c-0.6,0.5-1.2,0.9-1.7,1c-0.5,0.2-1,0.3-1.4,0.3c-0.4,0-0.7,0-0.9-0.1c-0.3-0.1-0.5-0.2-0.7-0.4c-0.2-0.2-0.4-0.4-0.5-0.7
			c-0.1-0.3-0.2-0.6-0.2-0.9v-3.2c0-0.3,0-0.5-0.1-0.6c-0.1-0.1-0.1-0.2-0.3-0.3c-0.1-0.1-0.3-0.1-0.5-0.1h-0.6V39.6z"/>
		<path class="st6" d="M162.7,40.6v-0.6c0.4,0,0.7-0.1,0.9-0.2c0.2-0.1,0.5-0.2,0.9-0.4h0.5v1.3c0.6-0.5,1.1-0.9,1.6-1
			c0.4-0.2,0.9-0.3,1.3-0.3c0.4,0,0.7,0.1,1,0.2c0.3,0.1,0.5,0.3,0.7,0.5c0.2,0.2,0.3,0.5,0.4,0.7c0,0.2,0.1,0.4,0.1,0.8v3.1
			c0,0.4,0,0.6,0.1,0.7c0.1,0.1,0.1,0.2,0.3,0.2c0.1,0,0.4,0.1,0.9,0.1v0.6h-3.6v-0.6h0.2c0.3,0,0.6,0,0.7-0.1
			c0.1-0.1,0.2-0.1,0.3-0.3c0.1-0.1,0.1-0.4,0.1-0.7v-2.6c0-0.5,0-0.9-0.1-1.1c-0.1-0.2-0.2-0.4-0.4-0.5c-0.2-0.1-0.5-0.2-0.8-0.2
			c-0.4,0-0.8,0.1-1.2,0.3c-0.4,0.2-0.8,0.5-1.2,0.9v3.2c0,0.4,0,0.6,0.1,0.7c0.1,0.1,0.1,0.2,0.3,0.3c0.1,0,0.3,0.1,0.7,0.1h0.2
			v0.6h-3.6v-0.6h0.2c0.3,0,0.6,0,0.7-0.1c0.1-0.1,0.2-0.2,0.3-0.3c0-0.1,0-0.3,0-0.8v-4H162.7z"/>
		<path class="st6" d="M174.2,37.3h0.5v2.4h2.1v0.7h-2.1v4.2c0,0.4,0,0.6,0.1,0.8c0.1,0.2,0.2,0.3,0.3,0.4c0.2,0.1,0.3,0.1,0.5,0.1
			c0.4,0,0.9-0.2,1.5-0.6v0.7c-0.6,0.4-1.2,0.6-1.8,0.6c-0.4,0-0.7-0.1-1-0.2c-0.3-0.2-0.5-0.3-0.6-0.6c-0.1-0.2-0.2-0.6-0.2-1.1
			v-4.3h-1.2v-0.6c0.4-0.1,0.7-0.2,0.9-0.4c0.2-0.2,0.4-0.4,0.6-0.7C174,38.3,174.1,37.9,174.2,37.3z"/>
		<path class="st6" d="M177.5,39.6h3.4v0.6h-0.3c-0.3,0-0.4,0-0.5,0c-0.1,0-0.1,0.1-0.2,0.1c0,0.1-0.1,0.1-0.1,0.2
			c0,0.1,0.1,0.3,0.2,0.6l1.6,3.8l1.5-3.6c0.2-0.4,0.3-0.7,0.3-0.8c0-0.1,0-0.2-0.1-0.2c-0.1,0-0.3-0.1-0.5-0.1h-0.3v-0.6h2.8v0.6
			h-0.2c-0.3,0-0.5,0-0.5,0.1c-0.1,0-0.2,0.1-0.2,0.2c-0.1,0.1-0.2,0.4-0.4,0.8l-2.5,5.9c-0.2,0.4-0.4,0.8-0.6,1.2
			c-0.2,0.4-0.5,0.6-0.9,0.8c-0.3,0.2-0.7,0.3-1.1,0.3c-0.5,0-0.9-0.1-1.1-0.3c-0.2-0.2-0.4-0.4-0.4-0.7c0-0.2,0.1-0.3,0.2-0.4
			c0.1-0.1,0.2-0.2,0.4-0.2c0.1,0,0.2,0,0.3,0.1c0.1,0,0.2,0.1,0.4,0.3c0.2,0.2,0.4,0.3,0.5,0.4c0.1,0,0.2,0.1,0.3,0.1
			c0.2,0,0.4-0.1,0.6-0.2c0.2-0.1,0.3-0.3,0.5-0.5c0.2-0.3,0.3-0.7,0.5-1l0.3-0.7l-2.3-5.1c-0.2-0.4-0.3-0.6-0.4-0.7
			c-0.1-0.1-0.2-0.2-0.3-0.2c-0.1,0-0.3,0-0.6,0V39.6z"/>
		<path class="st6" d="M191,36.7h3.8c1.2,0,2,0.1,2.4,0.2c0.6,0.2,1,0.5,1.4,0.9c0.4,0.4,0.5,1,0.5,1.6c0,0.6-0.1,1-0.4,1.5
			c-0.3,0.5-0.7,0.8-1.2,1c-0.5,0.2-1.2,0.3-2.2,0.3h-1.8v2.5c0,0.4,0,0.6,0.1,0.7c0.1,0.1,0.1,0.2,0.2,0.3c0.1,0.1,0.3,0.1,0.6,0.1
			h0.3v0.6H191v-0.6h0.2c0.3,0,0.5,0,0.7-0.1c0.1-0.1,0.2-0.1,0.3-0.3c0.1-0.1,0.1-0.3,0.1-0.6v-6.6c0-0.3,0-0.5-0.1-0.6
			c0-0.1-0.1-0.2-0.2-0.2c-0.1,0-0.3-0.1-0.7-0.1H191V36.7z M193.5,37.4v4.1h1.5c0.8,0,1.3-0.1,1.6-0.2c0.3-0.1,0.6-0.4,0.8-0.7
			c0.2-0.3,0.3-0.7,0.3-1.2c0-0.5-0.1-0.9-0.3-1.2c-0.2-0.3-0.5-0.5-0.9-0.7c-0.3-0.1-0.8-0.1-1.6-0.1H193.5z"/>
		<path class="st6" d="M199.6,39.6l2.6-0.1V44c0,0.4,0.1,0.7,0.2,0.9c0.1,0.2,0.3,0.4,0.5,0.5c0.2,0.1,0.5,0.2,0.8,0.2
			c0.4,0,0.8-0.1,1.3-0.3c0.5-0.2,0.9-0.5,1.4-0.9v-3.2c0-0.3,0-0.6-0.1-0.7c-0.1-0.1-0.1-0.2-0.3-0.3c-0.1-0.1-0.3-0.1-0.6-0.1
			h-0.5v-0.6l2.6-0.1v5.2c0,0.3,0,0.6,0.1,0.7s0.1,0.2,0.2,0.3c0.1,0.1,0.3,0.1,0.7,0.1h0.2v0.6l-2.3,0.1v-1.3
			c-0.6,0.5-1.2,0.9-1.7,1c-0.5,0.2-1,0.3-1.4,0.3c-0.4,0-0.7,0-0.9-0.1c-0.3-0.1-0.5-0.2-0.7-0.4c-0.2-0.2-0.4-0.4-0.5-0.7
			c-0.1-0.3-0.2-0.6-0.2-0.9v-3.2c0-0.3,0-0.5-0.1-0.6c-0.1-0.1-0.1-0.2-0.3-0.3c-0.1-0.1-0.3-0.1-0.5-0.1h-0.6V39.6z"/>
		<path class="st6" d="M209.8,37.3v-0.6c0.3,0,0.6-0.1,0.9-0.2c0.3-0.1,0.6-0.2,1-0.4h0.5v4.2c0.4-0.3,0.8-0.5,1.3-0.7
			c0.4-0.2,0.9-0.2,1.3-0.2c0.5,0,1,0.1,1.4,0.4c0.4,0.3,0.8,0.7,1,1.2c0.3,0.5,0.4,1.1,0.4,1.8c0,1.1-0.3,2-1,2.7
			c-0.6,0.6-1.3,1-2.2,1c-0.5,0-1-0.1-1.5-0.3c-0.3-0.2-0.6-0.4-0.9-0.8l-0.4,0.9H211v-9H209.8z M212.2,41.1v2.7
			c0,0.4,0,0.7,0.1,0.9c0.1,0.2,0.2,0.3,0.4,0.5c0.2,0.2,0.4,0.3,0.7,0.4c0.3,0.1,0.5,0.2,0.8,0.2c0.4,0,0.8-0.1,1.1-0.3
			c0.3-0.2,0.6-0.5,0.8-1c0.2-0.4,0.3-0.9,0.3-1.5c0-0.8-0.2-1.5-0.6-2c-0.3-0.4-0.8-0.6-1.4-0.6c-0.3,0-0.6,0.1-0.9,0.2
			C213,40.6,212.6,40.8,212.2,41.1z"/>
		<path class="st6" d="M219,37.3v-0.6c0.6,0,1.2-0.2,1.8-0.6h0.5v8.6c0,0.4,0,0.6,0.1,0.7c0.1,0.1,0.1,0.2,0.3,0.3
			c0.1,0.1,0.3,0.1,0.7,0.1h0.2v0.6H219v-0.6h0.4c0.2,0,0.4,0,0.5-0.1c0.1-0.1,0.2-0.2,0.2-0.3c0-0.1,0.1-0.4,0.1-0.7v-7.3H219z"/>
		<path class="st6" d="M223.5,40.6v-0.6c0.4,0,0.7-0.1,1-0.2c0.3-0.1,0.6-0.2,0.9-0.4h0.5V45c0,0.2,0,0.3,0.1,0.4
			c0.1,0.1,0.1,0.2,0.2,0.2c0.1,0,0.3,0.1,0.5,0.1h0.3v0.6h-3.6v-0.6h0.3c0.3,0,0.5,0,0.6-0.1c0.1-0.1,0.2-0.1,0.2-0.2
			c0-0.1,0.1-0.3,0.1-0.7v-4.1H223.5z M225.3,36.3c0.2,0,0.4,0.1,0.6,0.2c0.2,0.2,0.2,0.3,0.2,0.6c0,0.2-0.1,0.4-0.2,0.6
			c-0.2,0.2-0.3,0.2-0.6,0.2c-0.2,0-0.4-0.1-0.6-0.2c-0.2-0.2-0.2-0.3-0.2-0.6c0-0.2,0.1-0.4,0.2-0.6
			C224.9,36.4,225.1,36.3,225.3,36.3z"/>
		<path class="st6" d="M234.3,44.4l0.4,0.4c-0.9,1.2-1.9,1.7-3.1,1.7c-0.9,0-1.8-0.3-2.4-1c-0.7-0.7-1-1.5-1-2.5
			c0-0.7,0.2-1.3,0.5-1.8c0.3-0.5,0.7-1,1.3-1.2c0.5-0.3,1.2-0.4,1.9-0.4c0.8,0,1.5,0.2,2,0.6c0.5,0.4,0.8,0.8,0.8,1.2
			c0,0.2-0.1,0.4-0.2,0.5c-0.1,0.1-0.3,0.2-0.4,0.2c-0.1,0-0.2,0-0.2-0.1c-0.1,0-0.2-0.1-0.2-0.2c0,0-0.1-0.2-0.2-0.4
			c-0.1-0.3-0.2-0.4-0.3-0.5c-0.1-0.2-0.3-0.3-0.5-0.4c-0.2-0.1-0.4-0.2-0.7-0.2c-0.4,0-0.8,0.1-1.1,0.3c-0.3,0.2-0.6,0.5-0.8,1
			c-0.2,0.4-0.3,0.9-0.3,1.5c0,0.9,0.2,1.6,0.7,2.2c0.4,0.5,0.9,0.7,1.5,0.7c0.3,0,0.5,0,0.8-0.1c0.3-0.1,0.5-0.2,0.8-0.4
			C233.6,45.1,233.9,44.9,234.3,44.4z"/>
		<path class="st6" d="M240.8,36.7h3.8v0.6h-0.3c-0.3,0-0.5,0-0.6,0.1c-0.1,0.1-0.2,0.1-0.2,0.2c-0.1,0.1-0.1,0.3-0.1,0.5v6.8
			c0,0.3,0,0.5,0,0.6c0,0.1,0.1,0.1,0.2,0.2c0.1,0,0.3,0,0.6,0h0.5c0.6,0,1.1-0.1,1.6-0.3c0.4-0.2,0.8-0.4,1.1-0.8
			c0.3-0.3,0.6-0.8,0.9-1.5l0.6,0.2l-1.1,3h-7v-0.6h0.3c0.3,0,0.5,0,0.6-0.1c0.1-0.1,0.2-0.1,0.2-0.3c0.1-0.1,0.1-0.3,0.1-0.6v-6.6
			c0-0.3,0-0.6-0.1-0.7c-0.1-0.1-0.1-0.2-0.2-0.2c-0.1,0-0.3-0.1-0.6-0.1h-0.3V36.7z"/>
		<path class="st6" d="M249.4,40.6v-0.6c0.4,0,0.7-0.1,1-0.2c0.3-0.1,0.6-0.2,0.9-0.4h0.5V45c0,0.2,0,0.3,0.1,0.4
			c0.1,0.1,0.1,0.2,0.2,0.2c0.1,0,0.3,0.1,0.5,0.1h0.3v0.6h-3.6v-0.6h0.3c0.3,0,0.5,0,0.6-0.1c0.1-0.1,0.2-0.1,0.2-0.2
			c0-0.1,0.1-0.3,0.1-0.7v-4.1H249.4z M251.2,36.3c0.2,0,0.4,0.1,0.6,0.2s0.2,0.3,0.2,0.6c0,0.2-0.1,0.4-0.2,0.6
			c-0.2,0.2-0.3,0.2-0.6,0.2c-0.2,0-0.4-0.1-0.6-0.2c-0.2-0.2-0.2-0.3-0.2-0.6c0-0.2,0.1-0.4,0.2-0.6
			C250.8,36.4,251,36.3,251.2,36.3z"/>
		<path class="st6" d="M253.9,37.3v-0.6c0.3,0,0.6-0.1,0.9-0.2c0.3-0.1,0.6-0.2,1-0.4h0.5v4.2c0.4-0.3,0.8-0.5,1.3-0.7
			c0.4-0.2,0.9-0.2,1.3-0.2c0.5,0,1,0.1,1.4,0.4c0.4,0.3,0.8,0.7,1,1.2c0.3,0.5,0.4,1.1,0.4,1.8c0,1.1-0.3,2-1,2.7
			c-0.6,0.6-1.3,1-2.2,1c-0.5,0-1-0.1-1.5-0.3c-0.3-0.2-0.6-0.4-0.9-0.8l-0.4,0.9h-0.6v-9H253.9z M256.3,41.1v2.7
			c0,0.4,0,0.7,0.1,0.9c0.1,0.2,0.2,0.3,0.4,0.5c0.2,0.2,0.4,0.3,0.7,0.4c0.3,0.1,0.5,0.2,0.8,0.2c0.4,0,0.8-0.1,1.1-0.3
			c0.3-0.2,0.6-0.5,0.8-1c0.2-0.4,0.3-0.9,0.3-1.5c0-0.8-0.2-1.5-0.6-2c-0.3-0.4-0.8-0.6-1.4-0.6c-0.3,0-0.6,0.1-0.9,0.2
			C257.1,40.6,256.7,40.8,256.3,41.1z"/>
		<path class="st6" d="M263.1,40.6v-0.6c0.3,0,0.6-0.1,0.9-0.2c0.3-0.1,0.6-0.2,0.9-0.4h0.5v1.3c0.3-0.4,0.7-0.7,1.1-1
			c0.4-0.2,0.8-0.4,1.2-0.4c0.3,0,0.6,0.1,0.8,0.2c0.2,0.2,0.3,0.4,0.3,0.6c0,0.2-0.1,0.3-0.2,0.4c-0.1,0.1-0.3,0.2-0.5,0.2
			c-0.1,0-0.2,0-0.2,0c-0.1,0-0.1-0.1-0.3-0.2c-0.3-0.2-0.5-0.3-0.6-0.3c-0.2,0-0.5,0.1-0.8,0.3c-0.4,0.3-0.6,0.5-0.8,0.7v3.2
			c0,0.3,0,0.5,0,0.6s0.1,0.2,0.1,0.3c0.1,0.1,0.2,0.1,0.3,0.2c0.1,0,0.3,0,0.5,0h0.2v0.6h-3.6v-0.6h0.3c0.3,0,0.5,0,0.6-0.1
			c0.1-0.1,0.2-0.2,0.3-0.3c0.1-0.1,0.1-0.3,0.1-0.7v-4.1H263.1z"/>
		<path class="st6" d="M274.7,42.3l0-0.8c0-0.5-0.1-0.9-0.4-1.1c-0.3-0.2-0.7-0.3-1.2-0.3c-0.3,0-0.5,0-0.7,0.1
			c-0.2,0.1-0.4,0.1-0.5,0.3c-0.1,0.1-0.2,0.2-0.3,0.4c0,0.1-0.1,0.2-0.2,0.6c-0.1,0.4-0.3,0.6-0.6,0.6c-0.2,0-0.3-0.1-0.4-0.2
			c-0.1-0.1-0.2-0.3-0.2-0.5c0-0.3,0.1-0.6,0.3-0.9c0.2-0.3,0.6-0.5,1-0.7c0.5-0.2,1-0.3,1.6-0.3c0.6,0,1.1,0.1,1.5,0.3
			c0.4,0.2,0.7,0.4,0.9,0.8c0.1,0.2,0.2,0.7,0.2,1.3v2.7c0,0.4,0,0.6,0,0.7c0.1,0.2,0.1,0.3,0.3,0.4c0.1,0.1,0.3,0.1,0.5,0.1
			c0.2,0,0.5,0,0.8-0.1v0.6c-0.4,0.1-0.7,0.2-1,0.2c-0.3,0-0.6,0-0.8-0.1c-0.2-0.1-0.4-0.2-0.6-0.4c-0.1-0.2-0.2-0.4-0.3-0.6
			c-0.6,0.4-1.1,0.7-1.5,0.9c-0.4,0.2-0.9,0.3-1.4,0.3c-0.6,0-1.2-0.2-1.6-0.5c-0.4-0.3-0.6-0.8-0.6-1.2c0-0.3,0.1-0.6,0.2-0.8
			c0.1-0.3,0.4-0.5,0.7-0.7c0.3-0.2,0.8-0.4,1.4-0.5C272.7,42.6,273.5,42.4,274.7,42.3z M274.7,42.9c-1.1,0.2-1.7,0.3-2,0.3
			c-0.5,0.1-0.9,0.2-1.1,0.4c-0.2,0.1-0.4,0.3-0.5,0.4c-0.1,0.2-0.1,0.3-0.1,0.5s0.1,0.4,0.2,0.5c0.1,0.2,0.3,0.3,0.4,0.4
			c0.2,0.1,0.4,0.1,0.6,0.1c0.3,0,0.6-0.1,1-0.2c0.4-0.1,0.9-0.4,1.5-0.8V42.9z"/>
		<path class="st6" d="M278.2,40.6v-0.6c0.3,0,0.6-0.1,0.9-0.2c0.3-0.1,0.6-0.2,0.9-0.4h0.5v1.3c0.3-0.4,0.7-0.7,1.1-1
			c0.4-0.2,0.8-0.4,1.2-0.4c0.3,0,0.6,0.1,0.8,0.2c0.2,0.2,0.3,0.4,0.3,0.6c0,0.2-0.1,0.3-0.2,0.4c-0.1,0.1-0.3,0.2-0.5,0.2
			c-0.1,0-0.2,0-0.2,0c-0.1,0-0.1-0.1-0.3-0.2c-0.3-0.2-0.5-0.3-0.6-0.3c-0.2,0-0.5,0.1-0.8,0.3c-0.4,0.3-0.6,0.5-0.8,0.7v3.2
			c0,0.3,0,0.5,0,0.6c0,0.1,0.1,0.2,0.1,0.3c0.1,0.1,0.2,0.1,0.3,0.2c0.1,0,0.3,0,0.5,0h0.2v0.6h-3.6v-0.6h0.3c0.3,0,0.5,0,0.6-0.1
			c0.1-0.1,0.2-0.2,0.3-0.3c0.1-0.1,0.1-0.3,0.1-0.7v-4.1H278.2z"/>
		<path class="st6" d="M284.2,39.6h3.4v0.6h-0.3c-0.3,0-0.4,0-0.5,0c-0.1,0-0.1,0.1-0.2,0.1c0,0.1-0.1,0.1-0.1,0.2
			c0,0.1,0.1,0.3,0.2,0.6l1.6,3.8l1.5-3.6c0.2-0.4,0.3-0.7,0.3-0.8c0-0.1,0-0.2-0.1-0.2c-0.1,0-0.3-0.1-0.5-0.1h-0.3v-0.6h2.8v0.6
			h-0.2c-0.3,0-0.5,0-0.5,0.1c-0.1,0-0.2,0.1-0.2,0.2c-0.1,0.1-0.2,0.4-0.4,0.8l-2.5,5.9c-0.2,0.4-0.4,0.8-0.6,1.2
			c-0.2,0.4-0.5,0.6-0.9,0.8c-0.3,0.2-0.7,0.3-1.1,0.3c-0.5,0-0.9-0.1-1.1-0.3c-0.2-0.2-0.4-0.4-0.4-0.7c0-0.2,0.1-0.3,0.2-0.4
			c0.1-0.1,0.2-0.2,0.4-0.2c0.1,0,0.2,0,0.3,0.1c0.1,0,0.2,0.1,0.4,0.3c0.2,0.2,0.4,0.3,0.5,0.4c0.1,0,0.2,0.1,0.3,0.1
			c0.2,0,0.4-0.1,0.6-0.2c0.2-0.1,0.3-0.3,0.5-0.5c0.2-0.3,0.3-0.7,0.5-1l0.3-0.7l-2.3-5.1c-0.2-0.4-0.3-0.6-0.4-0.7
			s-0.2-0.2-0.3-0.2c-0.1,0-0.3,0-0.6,0V39.6z"/>
	</g>
</g>
</svg>
